<?xml version="1.0" encoding="utf-8"?>
<!-- Generator: Adobe Illustrator 27.3.1, SVG Export Plug-In . SVG Version: 6.00 Build 0)  -->
<svg version="1.1" id="Layer_1" xmlns="http://www.w3.org/2000/svg" xmlns:xlink="http://www.w3.org/1999/xlink" x="0px" y="0px"
	 viewBox="0 0 270.14 78.44" style="enable-background:new 0 0 270.14 78.44;" xml:space="preserve">
<style type="text/css">
	.st0{fill:#CD2576;}
</style>
<g>
	<path class="st0" d="M22.82,0.93c9.01,0,16.39,2.84,22.13,8.53c5.63,5.63,8.44,12.83,8.44,21.62c0,8.78-2.81,15.99-8.44,21.62
		c-5.74,5.68-13.12,8.53-22.13,8.53H0V0.93H22.82z M23.43,53.03c6.31,0,11.48-2.07,15.5-6.2c3.9-4.08,5.86-9.33,5.86-15.76
		c0-6.43-1.95-11.68-5.86-15.76c-4.02-4.13-9.19-6.2-15.5-6.2H8.61v43.92H23.43z"/>
	<path class="st0" d="M79.92,17.29c6.54,0,11.94,2.12,16.19,6.37c4.31,4.19,6.46,9.53,6.46,16.02s-2.15,11.83-6.46,16.02
		c-4.25,4.25-9.65,6.37-16.19,6.37c-6.55,0-11.94-2.12-16.19-6.37c-4.31-4.19-6.46-9.53-6.46-16.02s2.15-11.83,6.46-16.02
		C67.98,19.41,73.38,17.29,79.92,17.29z M79.92,53.72c4.08,0,7.43-1.32,10.08-3.96c2.64-2.64,3.96-6,3.96-10.08
		c0-4.08-1.32-7.44-3.96-10.08c-2.64-2.64-6-3.96-10.08-3.96c-4.08,0-7.44,1.32-10.08,3.96c-2.64,2.64-3.96,6-3.96,10.08
		c0,4.08,1.32,7.44,3.96,10.08C72.48,52.4,75.84,53.72,79.92,53.72z"/>
	<path class="st0" d="M131.85,17.29c5.51,0,9.99,1.84,13.43,5.51c3.39,3.62,5.08,8.24,5.08,13.87v24.54h-8.61V37.53
		c0-3.73-1.09-6.66-3.27-8.78c-2.12-2.18-5.05-3.27-8.78-3.27c-3.73,0-6.66,1.09-8.79,3.27c-2.18,2.12-3.27,5.05-3.27,8.78v23.68
		h-8.61V18.15h8.61v5.51C121.14,19.41,125.88,17.29,131.85,17.29z"/>
	<path class="st0" d="M178.61,17.29c-6.54,0-11.94,2.13-16.19,6.37c-4.3,4.2-6.46,9.53-6.46,16.02s2.16,11.83,6.46,16.02
		c4.25,4.25,9.65,6.37,16.19,6.37c6.55,0,11.94-2.12,16.19-6.37c4.31-4.19,6.46-9.53,6.46-16.02s-2.15-11.82-6.46-16.02
		C190.55,19.42,185.16,17.29,178.61,17.29z M188.69,49.76c-2.64,2.64-6,3.96-10.08,3.96c-4.07,0-7.43-1.32-10.07-3.96
		c-2.65-2.64-3.96-6-3.96-10.08c0-4.07,1.31-7.43,3.96-10.07c2.64-2.64,6-3.96,10.07-3.96c4.08,0,7.44,1.32,10.08,3.96
		s3.96,6,3.96,10.07C192.65,43.76,191.33,47.12,188.69,49.76z"/>
	<path class="st0" d="M270.14,18.15l-20.49,60.29h-9.05l5.86-17.23h-5.6L229,26.33h-11.2v34.88h-8.61V26.33h-6.89v-8.18h6.89
		c0-6.14,1.69-10.79,5.08-13.95c3.44-3.16,8.35-4.53,14.73-4.13v8.18c-3.97-0.4-6.84,0.2-8.62,1.81c-1.72,1.6-2.58,4.3-2.58,8.09
		h17.46l12.92,37.98l12.92-37.98H270.14z"/>
</g>
</svg>
