<?xml version="1.0" encoding="utf-8"?>
<!-- Generator: Adobe Illustrator 27.3.1, SVG Export Plug-In . SVG Version: 6.00 Build 0)  -->
<svg version="1.1" id="Layer_1" xmlns="http://www.w3.org/2000/svg" xmlns:xlink="http://www.w3.org/1999/xlink" x="0px" y="0px"
	 viewBox="0 0 415.7 122.83" style="enable-background:new 0 0 415.7 122.83;" xml:space="preserve">
<style type="text/css">
	.st0{fill:#CD2576;}
</style>
<path class="st0" d="M45.17,67.9l-14.82,8.56c-2.21-4.55-3.45-9.66-3.45-15.05c0-18.19,14.14-33.13,32.01-34.42v18.35
	C56.75,43.82,54.19,43,51.5,43c-3.45,0-6.69,1.34-9.15,3.79c-5.04,5.05-5.04,13.25,0,18.29L45.17,67.9z"/>
<path class="st0" d="M58.91,52.12l2.35,2.35l0.15-0.15l2.5-2.49l1.52-1.51c3.09-3.09,8.12-3.09,11.22,0c1.5,1.5,2.33,3.49,2.33,5.61
	c0,2.13-0.83,4.12-2.33,5.62l-7.33,7.33l-8.06,8.05l-7.95-7.96l-1.83-1.83l-1.83-1.83l-3.76-3.76c-3.09-3.09-3.09-8.13-0.01-11.22
	c1.51-1.5,3.51-2.33,5.62-2.33c2.12,0,4.11,0.83,5.61,2.32L58.91,52.12z"/>
<path class="st0" d="M73.8,71.47l16.15,9.32c-6.21,9.13-16.69,15.14-28.54,15.14c-11.86,0-22.34-6.01-28.55-15.15l15.97-9.22
	l12.43,12.45L73.8,71.47z"/>
<path class="st0" d="M95.92,61.41c0,5.4-1.24,10.5-3.46,15.06l-15-8.66l2.73-2.73c2.44-2.44,3.79-5.69,3.79-9.15
	c0-3.45-1.35-6.7-3.79-9.14c-4.42-4.41-11.27-4.96-16.28-1.65V26.99C81.78,28.28,95.92,43.22,95.92,61.41z"/>
<path class="st0" d="M104.83,17.99C93.72,6.87,78.36,0,61.41,0C44.45,0,29.1,6.87,17.98,17.99C6.87,29.1,0,44.45,0,61.41
	c0,33.92,27.49,61.42,61.41,61.42c16.95,0,32.31-6.88,43.42-17.99s17.99-26.47,17.99-43.43C122.82,44.45,115.94,29.1,104.83,17.99z
	 M61.41,100.93c-21.79,0-39.51-17.73-39.51-39.52c0-21.78,17.72-39.51,39.51-39.51c21.78,0,39.51,17.73,39.51,39.51
	C100.92,83.2,83.19,100.93,61.41,100.93z"/>
<g>
	<path class="st0" d="M167.84,28.57c9.01,0,16.39,2.84,22.13,8.53c5.63,5.63,8.44,12.83,8.44,21.62c0,8.78-2.81,15.99-8.44,21.62
		c-5.74,5.68-13.12,8.53-22.13,8.53h-22.82V28.57H167.84z M168.44,80.67c6.31,0,11.48-2.07,15.5-6.2c3.9-4.08,5.86-9.33,5.86-15.76
		c0-6.43-1.95-11.68-5.86-15.76c-4.02-4.13-9.19-6.2-15.5-6.2h-14.81v43.92H168.44z"/>
	<path class="st0" d="M224.94,44.93c6.54,0,11.94,2.12,16.19,6.37c4.31,4.19,6.46,9.53,6.46,16.02s-2.15,11.83-6.46,16.02
		c-4.25,4.25-9.65,6.37-16.19,6.37c-6.55,0-11.94-2.12-16.19-6.37c-4.31-4.19-6.46-9.53-6.46-16.02s2.15-11.83,6.46-16.02
		C213,47.06,218.39,44.93,224.94,44.93z M224.94,81.36c4.08,0,7.43-1.32,10.08-3.96c2.64-2.64,3.96-6,3.96-10.08
		c0-4.08-1.32-7.44-3.96-10.08c-2.64-2.64-6-3.96-10.08-3.96c-4.08,0-7.44,1.32-10.08,3.96c-2.64,2.64-3.96,6-3.96,10.08
		c0,4.08,1.32,7.44,3.96,10.08C217.5,80.04,220.86,81.36,224.94,81.36z"/>
	<path class="st0" d="M276.87,44.93c5.51,0,9.99,1.84,13.43,5.51c3.39,3.62,5.08,8.24,5.08,13.87v24.54h-8.61V65.17
		c0-3.73-1.09-6.66-3.27-8.78c-2.12-2.18-5.05-3.27-8.78-3.27c-3.73,0-6.66,1.09-8.79,3.27c-2.18,2.12-3.27,5.05-3.27,8.78v23.68
		h-8.61V45.79h8.61v5.51C266.16,47.06,270.9,44.93,276.87,44.93z"/>
	<path class="st0" d="M323.63,44.93c-6.54,0-11.94,2.13-16.19,6.37c-4.3,4.2-6.46,9.53-6.46,16.02s2.16,11.83,6.46,16.02
		c4.25,4.25,9.65,6.37,16.19,6.37c6.55,0,11.94-2.12,16.19-6.37c4.31-4.19,6.46-9.53,6.46-16.02s-2.15-11.82-6.46-16.02
		C335.57,47.06,330.18,44.93,323.63,44.93z M333.71,77.4c-2.64,2.64-6,3.96-10.08,3.96c-4.07,0-7.43-1.32-10.07-3.96
		c-2.65-2.64-3.96-6-3.96-10.08c0-4.07,1.31-7.43,3.96-10.07c2.64-2.64,6-3.96,10.07-3.96c4.08,0,7.44,1.32,10.08,3.96
		s3.96,6,3.96,10.07C337.67,71.4,336.35,74.76,333.71,77.4z"/>
	<path class="st0" d="M415.16,45.79l-20.49,60.29h-9.05l5.86-17.23h-5.6l-11.86-34.88h-11.2v34.88h-8.61V53.97h-6.89v-8.18h6.89
		c0-6.14,1.69-10.79,5.08-13.95c3.44-3.16,8.35-4.53,14.73-4.13v8.18c-3.97-0.4-6.84,0.2-8.62,1.81c-1.72,1.6-2.58,4.3-2.58,8.09
		h17.46l12.92,37.98l12.92-37.98H415.16z"/>
</g>
</svg>
