<?xml version="1.0" encoding="utf-8"?>
<!-- Generator: Adobe Illustrator 27.3.1, SVG Export Plug-In . SVG Version: 6.00 Build 0)  -->
<svg version="1.1" id="Layer_1" xmlns="http://www.w3.org/2000/svg" xmlns:xlink="http://www.w3.org/1999/xlink" x="0px" y="0px"
	 viewBox="0 0 122.82 122.83" style="enable-background:new 0 0 122.82 122.83;" xml:space="preserve">
<style type="text/css">
	.st0{fill:#CD2576;}
</style>
<path class="st0" d="M45.17,67.9l-14.82,8.56c-2.21-4.55-3.45-9.66-3.45-15.05c0-18.19,14.14-33.13,32.01-34.42v18.35
	C56.75,43.82,54.19,43,51.5,43c-3.45,0-6.69,1.34-9.15,3.79c-5.04,5.05-5.04,13.25,0,18.29L45.17,67.9z"/>
<path class="st0" d="M58.91,52.12l2.35,2.35l0.15-0.15l2.5-2.49l1.52-1.51c3.09-3.09,8.12-3.09,11.22,0c1.5,1.5,2.33,3.49,2.33,5.61
	c0,2.13-0.83,4.12-2.33,5.62l-7.33,7.33l-8.06,8.05l-7.95-7.96l-1.83-1.83l-1.83-1.83l-3.76-3.76c-3.09-3.09-3.09-8.13-0.01-11.22
	c1.51-1.5,3.51-2.33,5.62-2.33c2.12,0,4.11,0.83,5.61,2.32L58.91,52.12z"/>
<path class="st0" d="M73.8,71.47l16.15,9.32c-6.21,9.13-16.69,15.14-28.54,15.14c-11.86,0-22.34-6.01-28.55-15.15l15.97-9.22
	l12.43,12.45L73.8,71.47z"/>
<path class="st0" d="M95.92,61.41c0,5.4-1.24,10.5-3.46,15.06l-15-8.66l2.73-2.73c2.44-2.44,3.79-5.69,3.79-9.15
	c0-3.45-1.35-6.7-3.79-9.14c-4.42-4.41-11.27-4.96-16.28-1.65V26.99C81.78,28.28,95.92,43.22,95.92,61.41z"/>
<path class="st0" d="M104.83,17.99C93.72,6.87,78.36,0,61.41,0C44.45,0,29.1,6.87,17.98,17.99C6.87,29.1,0,44.45,0,61.41
	c0,33.92,27.49,61.42,61.41,61.42c16.95,0,32.31-6.88,43.42-17.99s17.99-26.47,17.99-43.43C122.82,44.45,115.94,29.1,104.83,17.99z
	 M61.41,100.93c-21.79,0-39.51-17.73-39.51-39.52c0-21.78,17.72-39.51,39.51-39.51c21.78,0,39.51,17.73,39.51,39.51
	C100.92,83.2,83.19,100.93,61.41,100.93z"/>
</svg>
